<svg xmlns="http://www.w3.org/2000/svg" viewBox="0 0 1430.53 388.83"><defs><style>.a{fill:#62346a;}.b{fill:#65396c;}.c{fill:#868d90;}.d{fill:#858d90;}.e{fill:#fcfbfc;}.f{fill:#fcfcfc;}.g{fill:#f8f8f9;}</style></defs><path class="a" d="M156.43,145.55c-3.92,10.1-5,20-6.71,29.79-4.7,26.27-6.39,52.88-9,79.39-.94,9.43-2.37,18.81-5.71,27.8-1.85,5-4.83,8.12-10.42,8.65a62.38,62.38,0,0,0-9.76,2.08c-4,1-5.84-.83-5.78-4.5.07-4.82.57-9.64,1-14.45,3.65-46,7.15-92,11-138,2.69-31.86,5-63.75,9.64-95.42,1.21-8.28,4.47-14.65,11.19-19.64C148,16.71,153.94,11.87,161.13,9c10-4,15.18-.64,15.13,10.12-.08,16.66-.64,33.32-.59,50,.05,17.75,2.17,35.22,8.89,51.87a82.24,82.24,0,0,0,13.5,22.65c7.29,8.6,15.73,10.42,26,5.57,9.52-4.52,16.74-11.93,23.85-19.47,16.18-17.17,28.88-37,42.7-56,6.67-9.16,13.41-18.27,21.24-26.5a44.62,44.62,0,0,1,10.32-8.61c6.07-3.38,10.17-1.89,12.55,4.59,1.63,4.42,2,9.07,2.2,13.75,1,21.7-3.33,42.79-7.62,63.84-9.44,46.36-24.22,91.35-35.43,137.25-3.49,14.32-12.42,23.07-23.53,30.78-4.08,2.83-5.42,2-5.58-3.15-.43-13.92,2.36-27.5,4.55-41.14,5.92-36.83,15.09-73,21.94-109.65,1-5.06,1.35-10.23,1.84-15.37.16-1.74.58-4-1.45-4.92-2.26-1.06-3.72.84-5.12,2.19-7.83,7.52-14.56,16-21.58,24.26C253,155,241.45,169.27,226.17,179.8a66.49,66.49,0,0,1-9.5,5.48c-14.46,6.75-27.13,4.25-38.11-7.37-6.58-7-11.15-15.31-16-23.45C160.84,151.64,159.47,148.58,156.43,145.55Z"/><path class="a" d="M852.4,253.14c0-16.49-.09-33,.06-49.46,0-4.32-.69-6-5.61-4.45-25.6,7.87-51.26,15.59-77,23-5.55,1.59-8.76,4.75-11.15,9.64-5.45,11.14-8.72,23-12,34.87-3.86,13.94-6.86,28.14-11.91,41.74a98.42,98.42,0,0,1-4.13,9.06c-2.14,4.32-5.88,6.17-10.51,6.51-5.4.4-8.19-1.72-8.83-7.14-.76-6.37.66-12.6,1.92-18.79,4.08-20.09,10.64-39.49,16.63-59.06,1.69-5.53,1.67-5.54-4-5.2-4.8.28-6.66-1.16-6.36-6,.51-8,1.16-16,2.37-23.84a13.63,13.63,0,0,1,9.88-11c12.64-3.75,18.38-13.16,22.55-24.62,10.64-29.25,18.92-59.28,29.46-88.55C790.5,61,797.57,42.35,807.81,25.09c4.53-7.62,9.57-14.87,16.78-20.27,9.72-7.29,20.9-6.22,29.26,2.61,3.1,3.28,2.88,7,1.41,10.7-2,5.09-4.64,10-6.69,15-2.75,6.78-2.18,8.32,3.58,12.55,13.14,9.67,19.24,23.46,22.5,38.83,3,14.21,3.8,28.69,4.73,43.15.77,12.12,1.63,24.25,2.39,36.38.2,3.19.88,5.42,4.66,6.48,5.27,1.48,6.57,9,1.84,13-6.4,5.43-7.75,12.51-8.62,20-1.74,14.92-1.16,29.94-1.75,44.91-.56,14.33-1.1,28.62-5.1,42.52a39.87,39.87,0,0,1-5.63,12.18,17.56,17.56,0,0,1-6.12,5.78c-6.26,3.22-10.08,1.16-10.13-5.88-.09-11.32.2-22.65.29-34,0-5.33,0-10.66,0-16Zm-.86-101.09h.09c0-4.82.33-9.68-.06-14.47-1.1-13.28-2.6-26.51-8.61-38.71-2.79-5.65-6.45-10.42-12.8-12.57-4-1.36-7-.53-9.56,3a99.4,99.4,0,0,0-7.85,13.3c-12.46,24.67-21.42,50.88-33.52,75.71-2.12,4.35-.39,6.62,4.64,6.19,11.09-1,22.18-2.11,33.24-3.38,9.25-1.07,18.42-2.66,27.55-4.52,4.72-1,6.87-3.43,6.88-8.05C851.55,163,851.54,157.54,851.54,152.05Z"/><path class="a" d="M375,265.54c.41-35.08,5.68-69.62,12.29-104,5.71-29.73,12-59.36,18.09-89A12.18,12.18,0,0,0,403.88,63c-5.08-8-10-16.13-15.3-24-3.21-4.75-2.77-8.82.54-13.2A92,92,0,0,1,404.2,9.94c8.86-7.26,18.58-8.08,29.07-3.95,28.92,11.39,53.63,28.6,73.45,52.67,10,12.12,19.82,24.32,24.89,39.48,11,33,7.07,63.37-16.35,90.1-23.05,26.3-51.19,44.3-85.69,51.57-4.2.89-8.6.9-12.91,1.14-6.32.33-9,2.65-9.73,9-.55,4.54.52,8.95,1.29,13.37,1.34,7.7,3.12,15.35,4,23.1,1.46,12.75-1.13,24.27-12.13,32.46-8,6-14.84,4.1-18.62-5.16-4.46-10.95-5.75-22.53-6.44-34.18C374.76,274.88,375,270.21,375,265.54ZM500,142.33a82.44,82.44,0,0,0-10.71-40.57c-14.73-26.62-38-43.56-64.65-56.63-1.24-.61-2.65-1.26-3.56.14s.44,2.42,1.33,3.37c6.74,7.16,13.16,14.57,18.17,23.1,3.16,5.4,4.36,11,2.79,17.21-3.23,12.9-6.24,25.86-9.2,38.83-5.86,25.76-13.34,51.17-16.88,77.44-1.92,14.24-1.59,14.59,12.55,13.32C469.79,215,500,182.17,500,142.33Z"/><path class="b" d="M2.71,358.43c15.16,2.07,30.33,4.08,45.47,6.21C93.45,371,139,373.82,184.63,375.56c81,3.09,161.94,1.27,242.86-2.33,47.45-2.11,94.78-5.85,142.13-9.42,54.33-4.1,108.66-8,163-12.4,47-3.79,93.94-8.15,140.91-12.17,60.92-5.2,121.85-10.26,182.87-14.07,64.38-4,128.78-7.23,193.3-6.23,41.34.64,82.6,2.76,123.47,9.56,12.81,2.13,25.56,4.62,38.13,7.91,1.86.48,4,.52,5.28,2.47-1.51,1.95-3.38,1-5,.65C1340.29,325.17,1268.22,324.27,1196,326c-42.65,1-85.23,3.6-127.77,6.74q-78.5,5.81-156.83,13.58-68.88,6.76-137.78,13.31c-45.11,4.29-90.2,8.74-135.34,12.66-58.92,5.1-117.9,9.42-177,12.51-68.42,3.57-136.88,5-205.37,3.42-61.18-1.41-122.16-5.63-182.71-14.74-21.89-3.29-43.73-7-65.35-11.84-1.86-.41-3.67-1-5.51-1.54Z"/><path class="a" d="M586.23,249.36c.95-36.26,6.82-71.9,13.74-107.37,7.33-37.57,16-74.83,26.68-111.62,3.11-10.79,10.86-17.42,22-18.78,6.77-.83,10.93,2.07,12.15,8.82,1.89,10.43-.72,20.58-2.65,30.66-6.76,35.3-16,70.06-23.77,105.13-6.27,28.1-12.85,56.15-15.22,85a64.43,64.43,0,0,0,.31,15.45c1.16,7.3,3.81,9.73,11.32,9.89,9,.19,17.4-2.62,25.74-5.49,13.4-4.63,26.19-10.68,38.87-17,2.73-1.35,5.61-2.85,8.37-.47,2.58,2.21,2.31,5.41,1.73,8.39a19.48,19.48,0,0,1-6,10.77c-21.8,19.9-46.47,34.75-75.9,39.73-22.32,3.78-32.61-4.66-35.81-27.2A178.16,178.16,0,0,1,586.23,249.36Z"/><path class="a" d="M0,217C1.46,170.07,7.37,116.3,25.1,64.4,28.82,53.51,33.45,43,40,33.44c4.36-6.39,9.33-12.2,16.93-14.95,7.94-2.88,11.88-.19,11.84,8.25-.12,20-4.62,39.29-9.59,58.47-9.87,38.06-17.58,76.52-21.83,115.64-3,27.24-3.91,54.48,1.64,81.55.62,3.06-.42,5.17-2.4,7.13a60.4,60.4,0,0,1-12.66,9.68C17,303.15,12,301.44,8.62,294a72.15,72.15,0,0,1-4.73-16.77C.73,259.82-.09,242.21,0,217Z"/><path class="c" d="M953.6,228.37c.34-11.28,5-21.26,10.95-30.55,15.24-24,34.16-44.26,59.83-57.39,3.28-1.68,4.09-4.68,5.22-7.55,5.89-15,10.59-30.5,17-45.33a109.3,109.3,0,0,1,10.15-18.88,23.43,23.43,0,0,1,6.58-6.76c2.36-1.48,4.89-3.17,7.85-1.21s2.63,4.84,2.1,7.65a34,34,0,0,1-1.94,6.7c-6.8,16.28-14.49,32.24-20.33,48.85-7.24,20.58-12.65,41.76-12.53,63.87.1,18.38,7.92,23.85,25.13,17.82,4.24-1.49,8.36-3.31,12.65-4.65,3.3-1,4.91.26,3.71,3.85a16.16,16.16,0,0,1-1.72,4.12c-8.25,11.87-19.88,18.54-33.94,20.61-7.51,1.11-11.78-2.27-14.51-9.4-2-5.17-2.54-10.67-3.87-16-.55-2.23-.63-5-3.33-5.68s-4.76,1.32-6.33,3.23c-5.71,6.94-11.23,14-16.91,21-5.26,6.46-10.58,12.88-17.26,18-.79.61-1.57,1.23-2.4,1.79-5.71,3.89-11.85,5.8-18.29,2.29S953.78,235.11,953.6,228.37Zm30.45-10.94a55.05,55.05,0,0,0,4.6-3.68,191.68,191.68,0,0,0,31.72-40.93c1.71-2.91,5.68-7.13,2.38-9.58-2.67-2-6.29,2.48-8.89,4.92-13.42,12.62-23.12,27.87-31,44.36a13.75,13.75,0,0,0-1.06,3.31C981.55,217,982,217.78,984.05,217.43Z"/><path class="d" d="M1385.57,180.35c-5.48,3.66-9.38,8.21-13.45,12.52q-8.4,8.9-16.47,18.11c-2.06,2.36-3.21,2.79-4.94-.35-4.09-7.43-4.06-8.95,1.25-15.52,12.35-15.28,24.83-30.46,35.65-46.91a54.24,54.24,0,0,0,5.7-10.51c1.19-3.15.45-4.82-3.32-4.29a76,76,0,0,1-25.84-.65c-7.63-1.55-9.09-3.57-8.19-10.34,1.44-10.85,3.35-13.13,11.45-12.62,7.81.5,15.6,1.21,23.44,1.12,10.17-.1,17.47-4.4,21.66-13.91a40.1,40.1,0,0,1,5.19-8.48c2.08-2.64,4.76-5.19,8.53-3.35s4.85,5.42,4,9.33c-.75,3.58-1.9,7.07-3,10.56-.63,2-.76,3.7.57,5.62,4.62,6.69,2.17,13.79.55,20.65-.65,2.77-3.75,2.85-6.22,3.33-2,.39-4.16.29-4.83,3.28-4.82,21.26-12.47,41.79-16.28,63.3a52.3,52.3,0,0,0-1.14,10.39c.14,5.05,1.9,5.89,6.27,3.36a67.2,67.2,0,0,0,13.57-10.94c2.42-2.42,3.64-2.34,4.66.92a15.93,15.93,0,0,0,1.57,3.67c2.3,3.68,1.52,6.45-1.46,9.63-7.3,7.78-14.51,15.63-23.23,21.87a45.82,45.82,0,0,1-8.14,4.83c-8.08,3.55-13.58,1.09-16.24-7.38-2.58-8.2-1.34-16.48.34-24.68s4.4-16.39,7-24.48C1385,186.1,1386.21,183.82,1385.57,180.35Z"/><path class="d" d="M1195.63,212.66a8,8,0,0,0-.9-1.89c-6-7.76-2.37-13.61,3.09-19.92,10.92-12.62,22-25,35.44-35a35.59,35.59,0,0,1,10-5.59c7.94-2.66,13.32,1,13.55,9.25.22,7.82-2.41,15.06-4.91,22.29-2.13,6.13-4.47,12.19-6.55,18.33-.78,2.31-1.82,4.66-1.26,7.28,2.42.43,3.2-1.55,4.3-2.86a261.35,261.35,0,0,1,23.54-24.45c14.31-13.06,24.47-10.75,32.13,7,2.1,4.88,3.62,10,6.47,14.58,1.75,2.8,4,4.21,7,2,2.46-1.82,3.25-.63,4.32,1.53,4.15,8.38,4.26,8.39-3,14.39-3.71,3.07-7.17,6.51-11.59,8.62-5.25,2.51-8.82,1.32-11.67-3.77s-3.85-11-5.86-16.43c-4.41-11.93-11.15-13.9-21.26-6-6,4.65-10.13,11-15,16.65-7.87,9.09-16,17.86-26.32,24.29-3,1.88-6.42,4.65-10.11,2.44s-2.61-6.6-2.25-10.1c1-10.51,5-20.33,7.84-30.39,1.24-4.32,2.41-8.65,3.59-13,.4-1.45.89-3.08-.74-4-1.46-.85-3-.2-4.18.76-2,1.69-4,3.54-5.9,5.36C1208.84,200.13,1202.33,206.31,1195.63,212.66Z"/><path class="c" d="M1131.57,231.67c-10.67.05-14.79-2.71-19.11-12.64a53.41,53.41,0,0,0-3.18-6.21c-1.66-2.81-4-3.69-6.51-1.17-2,2-2.73,1.23-3.72-1-4.81-10.7-5-10.82,4-18.63,2.56-2.24,3.09-4.91,3.64-7.85,2.68-14.21,7.11-27.73,16-39.39,4.83-6.34,10.64-11.46,18.66-13.44,9.76-2.4,17.86,3.54,18.2,13.59.38,11.39-5.5,20.33-11.92,28.94-4.58,6.15-10.16,11.44-15.44,17a22.41,22.41,0,0,0-3.44,4.25c-3.24,5.76-1.11,11.11,5.3,12.75,8.66,2.21,17,.27,24.62-3.72,3.92-2,5.53-1.87,7.16,2.46,3.13,8.35,4.4,6.44-3.33,13C1152.45,228.24,1143.14,231.63,1131.57,231.67Zm8.22-70.17c-.08-1.61.33-2.93-1-3.58s-2.35.09-3.2.85c-5.15,4.53-8.13,10.44-10.44,16.76a2.07,2.07,0,0,0,.51,2.31c.93.88,1.91.42,2.68-.23A38.35,38.35,0,0,0,1139.79,161.5Z"/><path class="e" d="M851.54,152.05c0,5.49,0,11,0,16.46,0,4.62-2.16,7.09-6.88,8.05-9.13,1.86-18.3,3.45-27.55,4.52-11.06,1.27-22.15,2.43-33.24,3.38-5,.43-6.76-1.84-4.64-6.19,12.1-24.83,21.06-51,33.52-75.71a99.4,99.4,0,0,1,7.85-13.3c2.52-3.49,5.54-4.32,9.56-3,6.35,2.15,10,6.92,12.8,12.57,6,12.2,7.51,25.43,8.61,38.71.39,4.79.06,9.65.06,14.47Z"/><path class="f" d="M500,142.33c0,39.84-30.18,72.64-70.16,76.21-14.14,1.27-14.47.92-12.55-13.32,3.54-26.27,11-51.68,16.88-77.44,3-13,6-25.93,9.2-38.83,1.57-6.25.37-11.81-2.79-17.21-5-8.53-11.43-15.94-18.17-23.1-.89-1-2.27-1.94-1.33-3.37s2.32-.75,3.56-.14c26.64,13.07,49.92,30,64.65,56.63A82.44,82.44,0,0,1,500,142.33Z"/><path class="g" d="M984.05,217.43c-2,.35-2.5-.42-2.27-1.6a13.75,13.75,0,0,1,1.06-3.31c7.9-16.49,17.6-31.74,31-44.36,2.6-2.44,6.22-6.91,8.89-4.92,3.3,2.45-.67,6.67-2.38,9.58a191.68,191.68,0,0,1-31.72,40.93A55.05,55.05,0,0,1,984.05,217.43Z"/><path class="g" d="M1139.79,161.5a38.35,38.35,0,0,1-11.45,16.11c-.77.65-1.75,1.11-2.68.23a2.07,2.07,0,0,1-.51-2.31c2.31-6.32,5.29-12.23,10.44-16.76.85-.76,2-1.45,3.2-.85S1139.71,159.89,1139.79,161.5Z"/></svg>